<?xml version="1.0" encoding="UTF-8" standalone="no"?>
<svg
   xmlns:dc="http://purl.org/dc/elements/1.1/"
   xmlns:cc="http://creativecommons.org/ns#"
   xmlns:rdf="http://www.w3.org/1999/02/22-rdf-syntax-ns#"
   xmlns:svg="http://www.w3.org/2000/svg"
   xmlns="http://www.w3.org/2000/svg"
   xmlns:sodipodi="http://sodipodi.sourceforge.net/DTD/sodipodi-0.dtd"
   xmlns:inkscape="http://www.inkscape.org/namespaces/inkscape"
   version="1.1"
   id="svg2"
   xml:space="preserve"
   width="1600"
   height="1600"
   viewBox="0 0 1600 1600"
   sodipodi:docname="vector60-1971-01.eps"><metadata
     id="metadata8"><rdf:RDF><cc:Work
         rdf:about=""><dc:format>image/svg+xml</dc:format><dc:type
           rdf:resource="http://purl.org/dc/dcmitype/StillImage" /></cc:Work></rdf:RDF></metadata><defs
     id="defs6" /><sodipodi:namedview
     pagecolor="#ffffff"
     bordercolor="#666666"
     borderopacity="1"
     objecttolerance="10"
     gridtolerance="10"
     guidetolerance="10"
     inkscape:pageopacity="0"
     inkscape:pageshadow="2"
     inkscape:window-width="640"
     inkscape:window-height="480"
     id="namedview4" /><g
     id="g10"
     inkscape:groupmode="layer"
     inkscape:label="ink_ext_XXXXXX"
     transform="matrix(1.3333333,0,0,-1.3333333,0,1600)"><g
       id="g12"
       transform="scale(0.1)"><path
         d="m 9290,5161.31 c 0,-558.07 -461.7,-1012.08 -1029.21,-1012.08 h -11.36 L 8525.28,2541.02 6160.54,4149.23 H 3514.31 c -567.51,0 -1029.21,454.01 -1029.21,1012.08 v 2476.61 c 0,558.07 461.7,1012.08 1029.21,1012.08 H 8260.79 C 8828.3,8650 9290,8195.99 9290,7637.92 Z M 5935,10650 c -2620.59,0 -4745,-2124.41 -4745,-4745 0,-2620.59 2124.41,-4745 4745,-4745 2620.59,0 4745,2124.41 4745,4745 0,2620.59 -2124.41,4745 -4745,4745"
         style="fill:#11100e;fill-opacity:1;fill-rule:nonzero;stroke:none"
         id="path14" /><path
         d="M 7764.35,6816.35 H 4010.76 c -153.18,0 -278.49,123.24 -278.49,273.86 0,150.62 125.31,273.86 278.49,273.86 h 3753.59 c 153.17,0 278.49,-123.24 278.49,-273.86 0,-150.62 -125.32,-273.86 -278.49,-273.86 z m 0,-1309.75 H 4010.76 c -153.18,0 -278.49,123.24 -278.49,273.86 0,150.62 125.31,273.86 278.49,273.86 h 3753.59 c 153.17,0 278.49,-123.24 278.49,-273.86 0,-150.62 -125.32,-273.86 -278.49,-273.86 z m 496.44,2714.76 H 3514.31 C 3187.16,8221.36 2921,7959.63 2921,7637.92 V 5161.31 c 0,-321.71 266.16,-583.44 593.31,-583.44 H 6296.56 L 7923.65,3471.35 7733.84,4577.87 h 526.95 c 327.16,0 593.31,261.73 593.31,583.44 v 2476.61 c 0,321.71 -266.15,583.44 -593.31,583.44"
         style="fill:#11100e;fill-opacity:1;fill-rule:nonzero;stroke:none"
         id="path16" /></g></g></svg>
