<?xml version="1.0" standalone="no"?>
<!DOCTYPE svg PUBLIC "-//W3C//DTD SVG 20010904//EN"
 "http://www.w3.org/TR/2001/REC-SVG-20010904/DTD/svg10.dtd">
<svg version="1.0" xmlns="http://www.w3.org/2000/svg"
 width="512.000000pt" height="512.000000pt" viewBox="0 0 512.000000 512.000000"
 preserveAspectRatio="xMidYMid meet">
<metadata>
Created by potrace 1.14, written by Peter Selinger 2001-2017
</metadata>
<g transform="translate(0.000000,512.000000) scale(0.100000,-0.100000)"
fill="#000000" stroke="none">
<path d="M2286 4529 c-474 -65 -879 -268 -1206 -605 -360 -372 -551 -825 -567
-1344 -13 -419 97 -815 325 -1165 85 -131 164 -225 298 -355 287 -277 620
-449 1029 -531 136 -27 463 -38 601 -20 710 93 1297 515 1595 1146 146 309
211 658 188 1000 -11 160 -14 180 -49 330 -155 654 -639 1204 -1259 1429 -255
92 -395 118 -671 122 -118 1 -246 -2 -284 -7z m1349 -855 c124 -32 225 -115
283 -233 l37 -75 0 -636 0 -636 -38 -76 c-65 -132 -183 -218 -327 -241 -69
-10 -71 -11 -66 -36 20 -97 106 -626 104 -636 -2 -7 -222 138 -498 326 l-495
338 -587 0 c-389 1 -605 5 -640 12 -118 25 -246 121 -297 223 -50 102 -51 112
-51 717 0 328 4 588 10 618 29 154 144 280 300 329 64 21 84 21 1135 21 937 1
1078 -1 1130 -15z"/>
<path d="M1435 3499 c-58 -14 -115 -57 -150 -114 l-30 -48 0 -607 0 -607 30
-49 c34 -55 111 -107 172 -118 21 -3 307 -6 636 -6 l598 0 297 -202 c163 -110
316 -215 339 -231 24 -17 45 -28 47 -26 2 2 -13 105 -35 229 -21 124 -39 226
-39 228 0 1 55 2 123 2 159 0 211 15 277 78 82 80 81 69 78 728 -3 566 -3 569
-25 610 -12 23 -41 58 -65 78 -80 69 -28 66 -1177 65 -601 -1 -1053 -5 -1076
-10z m1935 -374 c34 -17 60 -62 60 -100 0 -14 -7 -39 -15 -55 -32 -63 7 -60
-905 -60 -930 0 -871 -5 -905 71 -22 48 -14 82 30 126 l33 33 836 0 c729 0
841 -2 866 -15z m26 -576 c33 -34 42 -94 20 -137 -34 -66 11 -63 -915 -60
l-839 3 -26 24 c-40 37 -52 90 -32 132 35 73 -26 69 918 66 l848 -2 26 -26z"/>
</g>
</svg>
